<?xml version="1.0" encoding="UTF-8"?> <svg xmlns="http://www.w3.org/2000/svg" width="311" height="48" viewBox="0 0 311 48" fill="none"> <rect x="2.46366" y="0.533815" width="307.932" height="24.8958" transform="rotate(4.01917 2.46366 0.533815)" stroke="#262626"></rect> <path d="M12.0865 14.8107L10.0116 14.6649L9.68081 19.3733L7.63784 19.2297L8.42285 8.05727L10.4658 8.20081L10.1372 12.8773L12.276 13.0276L15.8126 8.5765L18.0152 8.73126L13.8204 13.8739L17.3738 19.9138L15.0276 19.749L12.0865 14.8107ZM23.9111 20.5335C22.7726 20.4535 21.763 20.1367 20.8823 19.5829C20.0023 19.0185 19.3323 18.2817 18.8723 17.3726C18.4129 16.4528 18.2214 15.4502 18.2977 14.3649C18.3739 13.2796 18.7034 12.319 19.2861 11.4831C19.8695 10.6366 20.636 10.0007 21.5854 9.57557C22.5356 9.13977 23.58 8.96186 24.7185 9.04186C25.8571 9.12185 26.8663 9.44405 27.7462 10.0084C28.6269 10.5622 29.2973 11.2937 29.7574 12.2028C30.2175 13.112 30.409 14.1145 30.332 15.2105C30.255 16.3064 29.9251 17.2724 29.3425 18.1082C28.7598 18.9441 27.9933 19.58 27.0431 20.0158C26.0936 20.4409 25.0496 20.6135 23.9111 20.5335ZM24.0389 18.714C24.7838 18.7663 25.4657 18.6485 26.0848 18.3605C26.7045 18.0619 27.2056 17.6266 27.588 17.0547C27.9711 16.4721 28.1888 15.8084 28.2411 15.0636C28.2935 14.3187 28.1703 13.6364 27.8717 13.0166C27.5738 12.3862 27.1385 11.8851 26.5659 11.5134C25.9939 11.1311 25.3355 10.9137 24.5907 10.8614C23.8459 10.809 23.1636 10.9322 22.5438 11.2308C21.9247 11.5188 21.4237 11.9541 21.0405 12.5367C20.6582 13.1086 20.4408 13.767 20.3885 14.5118C20.3362 15.2566 20.4589 15.9443 20.7568 16.5747C21.0554 17.1945 21.4907 17.6956 22.0627 18.0779C22.6354 18.4497 23.2941 18.6617 24.0389 18.714ZM42.2512 10.4341L41.4662 21.6066L39.4232 21.4631L40.0849 12.0463L35.6797 11.7368L35.3877 14.5231C35.2246 16.0835 35.0076 17.3461 34.7366 18.3108C34.4664 19.2649 34.0899 19.9816 33.6072 20.4609C33.1251 20.9296 32.4904 21.1363 31.703 21.081C31.4264 21.0616 31.0524 20.9818 30.581 20.8418L30.8514 19.0483C30.9867 19.1006 31.1448 19.1331 31.3257 19.1458C31.9748 19.1914 32.4593 18.8405 32.7791 18.0931C33.1103 17.3358 33.3662 16.1294 33.5466 14.474L34.0315 9.85661L42.2512 10.4341ZM45.4102 10.6561L47.4531 10.7997L46.8958 18.7321L53.4543 11.2213L55.3856 11.357L54.6006 22.5295L52.5576 22.3859L53.1138 14.4694L46.5564 21.9643L44.6252 21.8286L45.4102 10.6561ZM66.9209 12.1675L66.1359 23.34L64.0769 23.1953L64.373 18.9817C63.2919 19.3014 62.2779 19.4279 61.3309 19.3614C59.9051 19.2612 58.8277 18.8433 58.0988 18.1078C57.3813 17.3623 57.0678 16.3459 57.1583 15.0584L57.4083 11.4991L59.4673 11.6438L59.2329 14.9796C59.1776 15.767 59.3641 16.3842 59.7925 16.8314C60.2208 17.2785 60.8606 17.5319 61.7119 17.5918C62.6802 17.6598 63.6091 17.5272 64.4986 17.1941L64.862 12.0228L66.9209 12.1675ZM77.7687 22.409L77.6465 24.1487L69.2672 23.56L70.0522 12.3875L78.2081 12.9606L78.0858 14.7003L72.0048 14.273L71.8007 17.1779L77.1954 17.5569L77.0754 19.2647L71.6807 18.8857L71.4643 21.9661L77.7687 22.409ZM85.0409 24.8287C83.913 24.7494 82.9087 24.4329 82.028 23.8792C81.1587 23.3155 80.4941 22.5791 80.034 21.67C79.5845 20.7616 79.3983 19.7594 79.4753 18.6634C79.5523 17.5675 79.8822 16.6015 80.4649 15.7657C81.0476 14.9298 81.8083 14.2989 82.7471 13.873C83.6974 13.4372 84.7364 13.2589 85.8643 13.3381C86.7794 13.4024 87.6034 13.6207 88.3365 13.993C89.0695 14.3653 89.6754 14.873 90.1542 15.5162L88.7249 16.6829C87.9775 15.7535 87.0133 15.2474 85.8322 15.1644C85.0661 15.1106 84.3678 15.2326 83.7374 15.5305C83.1077 15.8177 82.6017 16.2473 82.2193 16.8192C81.837 17.3912 81.6193 18.0549 81.5662 18.8103C81.5131 19.5658 81.6359 20.2534 81.9345 20.8732C82.2331 21.493 82.6737 21.9945 83.2563 22.3776C83.8396 22.75 84.5144 22.9632 85.2805 23.017C86.4616 23.1 87.4875 22.7283 88.3582 21.902L89.6092 23.2731C89.0452 23.8429 88.3689 24.2606 87.5804 24.5259C86.8025 24.7921 85.956 24.893 85.0409 24.8287ZM100.061 16.2604L96.3578 16.0002L95.6961 25.417L93.6372 25.2723L94.2988 15.8555L90.6119 15.5965L90.7353 13.8408L100.184 14.5047L100.061 16.2604ZM108.955 20.5102C109.654 20.7518 110.173 21.1198 110.513 21.6141C110.853 22.0978 110.999 22.6855 110.95 23.3771C110.882 24.356 110.466 25.0914 109.705 25.5832C108.943 26.0751 107.876 26.2728 106.503 26.1763L101.204 25.804L101.989 14.6315L106.985 14.9825C108.241 15.0708 109.202 15.3896 109.869 15.939C110.536 16.4885 110.838 17.2207 110.773 18.1358C110.732 18.721 110.553 19.2164 110.236 19.6218C109.929 20.028 109.502 20.3241 108.955 20.5102ZM103.697 19.5473L106.474 19.7424C107.145 19.7895 107.665 19.6924 108.034 19.4511C108.404 19.2097 108.608 18.8284 108.644 18.307C108.681 17.7856 108.533 17.3796 108.2 17.0889C107.869 16.7876 107.368 16.6134 106.697 16.5663L103.92 16.3711L103.697 19.5473ZM106.552 24.5758C108.02 24.6789 108.793 24.1772 108.871 23.0706C108.947 21.9853 108.251 21.391 106.783 21.2879L103.591 21.0636L103.36 24.3515L106.552 24.5758ZM118.257 27.1625C117.118 27.0825 116.108 26.7657 115.228 26.2119C114.348 25.6475 113.678 24.9107 113.218 24.0016C112.758 23.0818 112.567 22.0792 112.643 20.9939C112.719 19.9086 113.049 18.948 113.632 18.1121C114.215 17.2656 114.981 16.6297 115.931 16.2046C116.881 15.7688 117.926 15.5909 119.064 15.6709C120.203 15.7509 121.212 16.073 122.092 16.6374C122.972 17.1912 123.643 17.9227 124.103 18.8318C124.563 19.741 124.755 20.7435 124.678 21.8395C124.601 22.9354 124.271 23.9014 123.688 24.7372C123.105 25.5731 122.339 26.209 121.389 26.6448C120.439 27.0699 119.395 27.2425 118.257 27.1625ZM118.384 25.343C119.129 25.3953 119.811 25.2775 120.43 24.9895C121.05 24.6909 121.551 24.2556 121.934 23.6837C122.317 23.1011 122.534 22.4374 122.587 21.6926C122.639 20.9477 122.516 20.2654 122.217 19.6456C121.919 19.0152 121.484 18.5141 120.911 18.1424C120.339 17.7601 119.681 17.5427 118.936 17.4904C118.191 17.438 117.509 17.5612 116.889 17.8598C116.27 18.1478 115.769 18.5831 115.386 19.1657C115.004 19.7376 114.786 20.396 114.734 21.1408C114.682 21.8856 114.804 22.5733 115.102 23.2037C115.401 23.8235 115.836 24.3246 116.408 24.7069C116.981 25.0786 117.64 25.2907 118.384 25.343ZM141.253 28.6179L141.757 21.211L137.655 27.082L136.73 27.017L133.483 20.7259L132.969 28.0359L131.006 27.8979L131.791 16.7255L133.499 16.8455L137.401 24.5459L142.293 17.4634L143.985 17.5823L143.232 28.757L141.253 28.6179ZM154.86 27.8257L154.738 29.5654L146.358 28.9766L147.143 17.8042L155.299 18.3772L155.177 20.117L149.096 19.6897L148.892 22.5945L154.287 22.9736L154.167 24.6814L148.772 24.3023L148.555 27.3827L154.86 27.8257ZM162.132 30.2453C161.004 30.1661 160 29.8496 159.119 29.2958C158.25 28.7322 157.585 27.9958 157.125 27.0866C156.676 26.1782 156.49 25.1761 156.567 24.0801C156.644 22.9841 156.973 22.0182 157.556 21.1823C158.139 20.3464 158.9 19.7155 159.838 19.2896C160.789 18.8538 161.828 18.6755 162.955 18.7548C163.871 18.8191 164.695 19.0374 165.428 19.4097C166.161 19.782 166.767 20.2897 167.245 20.9328L165.816 22.0995C165.069 21.1702 164.104 20.664 162.923 20.581C162.157 20.5272 161.459 20.6492 160.829 20.9471C160.199 21.2344 159.693 21.6639 159.311 22.2359C158.928 22.8078 158.71 23.4715 158.657 24.227C158.604 24.9825 158.727 25.6701 159.026 26.2899C159.324 26.9097 159.765 27.4111 160.347 27.7942C160.931 28.1667 161.606 28.3799 162.372 28.4337C163.553 28.5167 164.579 28.145 165.449 27.3187L166.7 28.6897C166.136 29.2596 165.46 29.6772 164.672 29.9426C163.894 30.2087 163.047 30.3096 162.132 30.2453ZM177.152 21.677L173.449 21.4168L172.787 30.8336L170.728 30.689L171.39 21.2722L167.703 21.0131L167.826 19.2574L177.275 19.9213L177.152 21.677ZM187.851 32.0524C186.712 31.9724 185.703 31.6555 184.822 31.1018C183.942 30.5374 183.272 29.8006 182.812 28.8915C182.353 27.9717 182.161 26.9691 182.237 25.8838C182.313 24.7985 182.643 23.8379 183.226 23.002C183.809 22.1555 184.576 21.5196 185.525 21.0945C186.475 20.6586 187.52 20.4807 188.658 20.5607C189.797 20.6407 190.806 20.9629 191.686 21.5273C192.567 22.0811 193.237 22.8125 193.697 23.7217C194.157 24.6308 194.349 25.6334 194.272 26.7294C194.195 27.8253 193.865 28.7912 193.282 29.6271C192.699 30.463 191.933 31.0989 190.983 31.5347C190.033 31.9598 188.989 32.1324 187.851 32.0524ZM187.979 30.2329C188.723 30.2852 189.405 30.1674 190.024 29.8794C190.644 29.5808 191.145 29.1455 191.528 28.5736C191.911 27.991 192.128 27.3273 192.181 26.5825C192.233 25.8376 192.11 25.1553 191.811 24.5355C191.513 23.9051 191.078 23.404 190.505 23.0323C189.933 22.6499 189.275 22.4326 188.53 22.3803C187.785 22.3279 187.103 22.4511 186.483 22.7497C185.864 23.0377 185.363 23.473 184.98 24.0555C184.598 24.6275 184.38 25.2859 184.328 26.0307C184.276 26.7755 184.399 27.4632 184.696 28.0936C184.995 28.7134 185.43 29.2145 186.002 29.5968C186.575 29.9685 187.234 30.1806 187.979 30.2329ZM204.416 23.5927L198.878 23.2035L198.232 32.6214L196.189 32.4779L196.974 21.3054L204.555 21.8381L204.416 23.5927ZM210.891 22.2833C211.859 22.3513 212.689 22.57 213.379 22.9393C214.08 23.3093 214.601 23.8058 214.943 24.4285C215.284 25.0513 215.426 25.7724 215.368 26.5917C215.311 27.4004 215.07 28.0945 214.644 28.6741C214.219 29.243 213.634 29.6617 212.888 29.9301C212.153 30.1992 211.301 30.2997 210.333 30.2317L207.811 30.0545L207.584 33.2786L205.509 33.1328L206.294 21.9603L210.891 22.2833ZM210.36 28.4693C211.265 28.5328 211.964 28.3895 212.459 28.0394C212.955 27.6892 213.227 27.1577 213.277 26.4448C213.327 25.7319 213.132 25.1674 212.69 24.7515C212.249 24.3355 211.576 24.0958 210.672 24.0322L208.246 23.8618L207.934 28.2988L210.36 28.4693ZM223.852 31.8232L218.265 31.4306L216.982 33.9389L214.844 33.7886L220.656 22.9694L222.699 23.113L226.958 34.6398L224.787 34.4873L223.852 31.8232ZM223.28 30.1469L221.516 25.115L219.082 29.852L223.28 30.1469ZM239.384 24.2853L238.599 35.4577L236.524 35.3119L236.86 30.5237L231.082 30.1178L230.746 34.906L228.671 34.7602L229.456 23.5877L231.531 23.7335L231.207 28.3461L236.985 28.7521L237.309 24.1395L239.384 24.2853ZM242.534 24.5066L244.577 24.6501L244.019 32.5826L250.578 25.0718L252.509 25.2075L251.724 36.3799L249.681 36.2364L250.237 28.3199L243.68 35.8147L241.749 35.679L242.534 24.5066ZM264.044 26.018L263.259 37.1904L261.2 37.0458L261.496 32.8322C260.415 33.1519 259.401 33.2784 258.454 33.2119C257.028 33.1117 255.951 32.6938 255.222 31.9583C254.505 31.2128 254.191 30.1963 254.282 28.9088L254.532 25.3496L256.591 25.4943L256.356 28.8301C256.301 29.6174 256.487 30.2347 256.916 30.6818C257.344 31.129 257.984 31.3824 258.835 31.4422C259.804 31.5103 260.732 31.3777 261.622 31.0446L261.985 25.8733L264.044 26.018ZM274.892 36.2595L274.77 37.9992L266.391 37.4105L267.176 26.238L275.331 26.8111L275.209 28.5508L269.128 28.1235L268.924 31.0283L274.319 31.4074L274.199 33.1152L268.804 32.7361L268.588 35.8165L274.892 36.2595ZM287.795 27.6868L287.01 38.8593L284.936 38.7135L285.272 33.9253L279.494 33.5193L279.158 38.3075L277.083 38.1617L277.868 26.9893L279.943 27.1351L279.619 31.7477L285.396 32.1537L285.721 27.541L287.795 27.6868ZM295.304 39.6024C294.166 39.5224 293.156 39.2056 292.276 38.6518C291.396 38.0874 290.726 37.3506 290.266 36.4415C289.806 35.5217 289.615 34.5191 289.691 33.4338C289.767 32.3485 290.097 31.3879 290.679 30.552C291.263 29.7055 292.029 29.0696 292.979 28.6445C293.929 28.2087 294.973 28.0308 296.112 28.1108C297.25 28.1908 298.26 28.513 299.14 29.0774C300.02 29.6311 300.691 30.3626 301.151 31.2717C301.611 32.1809 301.802 33.1834 301.725 34.2794C301.648 35.3753 301.319 36.3413 300.736 37.1772C300.153 38.013 299.387 38.6489 298.436 39.0847C297.487 39.5098 296.443 39.6824 295.304 39.6024ZM295.432 37.7829C296.177 37.8353 296.859 37.7174 297.478 37.4294C298.098 37.1308 298.599 36.6955 298.981 36.1236C299.364 35.541 299.582 34.8773 299.635 34.1325C299.687 33.3876 299.564 32.7053 299.265 32.0855C298.967 31.4551 298.532 30.954 297.959 30.5823C297.387 30.2 296.729 29.9826 295.984 29.9303C295.239 29.8779 294.557 30.0011 293.937 30.2997C293.318 30.5877 292.817 31.023 292.434 31.6056C292.052 32.1775 291.834 32.8359 291.782 33.5807C291.73 34.3256 291.852 35.0132 292.15 35.6436C292.449 36.2634 292.884 36.7645 293.456 37.1468C294.029 37.5186 294.688 37.7306 295.432 37.7829Z" fill="#222222"></path> </svg> 