<?xml version="1.0" encoding="UTF-8" standalone="no"?> <svg xmlns="http://www.w3.org/2000/svg" xmlns:xlink="http://www.w3.org/1999/xlink" width="141" height="77" viewBox="0 0 141 77" xml:space="preserve"> <desc>Created with Fabric.js 4.6.0</desc> <defs> </defs> <g transform="matrix(1 0 0 1 70.29 38.71)" id="6qxKkDd86drzG9qHpKvOR"> <path style="stroke: none; stroke-width: 1; stroke-dasharray: none; stroke-linecap: butt; stroke-dashoffset: 0; stroke-linejoin: miter; stroke-miterlimit: 4; fill: rgb(65,183,245); fill-rule: evenodd; opacity: 1;" transform=" translate(-70.29, -38.71)" d="M 132.738 28.68 C 127.421 36.6495 128.805 45.5944 128.061 54.1578 C 126.377 55.1343 125.747 53.4661 124.92 52.7276 C 110.347 39.7106 93.3565 26.7385 77.1289 19.5629 C 61.2735 12.5519 60.6191 12.656 48.0043 7.84252 C 42.2777 5.65737 43.7298 6.36546 37.5365 4.31581 C 30.51 1.99047 19.0048 0.00932363 11.6671 0.711165 C 9.14335 0.950604 1.3598 0.82109 0.151491 3.09771 C 1.41042 4.63681 11.1892 5.28155 12.9474 5.4836 C 22.3039 7.20289 28.3509 9.23695 33.2227 10.9916 C 38.0944 12.7463 45.2783 15.9506 53.7182 20.5154 C 70.3604 27.946 81.5561 35.9494 95.771 46.0209 C 103.091 51.2049 110.281 56.5789 116.809 62.7723 C 117.432 63.3615 118.311 63.7939 118.458 65.2417 C 112.436 66.1076 106.602 67.0369 100.74 67.7549 C 97.3703 68.1672 94.1728 69.1885 90.9189 70.0246 C 90.024 70.2533 89.1567 70.6559 88.3329 71.0844 C 87.2912 71.6251 86.5362 72.4925 86.4871 73.7043 C 86.43 75.0907 87.625 75.481 88.5992 75.974 C 90.1554 76.7621 91.8596 76.6844 93.5379 76.7672 C 100.655 77.1211 107.73 76.3269 114.807 75.8541 C 120.233 75.4935 125.623 75.3398 131.039 75.7532 C 131.965 75.8262 132.905 75.9057 133.824 75.814 C 138.752 75.316 140.738 73.0636 140.399 68.0297 C 140.146 64.3043 139.623 60.5948 139.153 56.8889 C 138.31 50.2132 137.51 43.5312 136.507 36.8799 C 136.072 33.9965 135.6 30.9906 132.738 28.68 Z" stroke-linecap="round"></path> </g> </svg> 