<?xml version="1.0" encoding="UTF-8" standalone="no"?> <svg xmlns="http://www.w3.org/2000/svg" xmlns:xlink="http://www.w3.org/1999/xlink" width="376" height="173" viewBox="0 0 376 173" xml:space="preserve"> <desc>Created with Fabric.js 4.6.0</desc> <defs> </defs> <g transform="matrix(1 0 0 1 187.98 86.65)" id="F6VMPfxfsMaXU8sJQuEG6"> <path style="stroke: none; stroke-width: 1; stroke-dasharray: none; stroke-linecap: butt; stroke-dashoffset: 0; stroke-linejoin: miter; stroke-miterlimit: 4; fill: rgb(65,183,245); fill-rule: nonzero; opacity: 1;" transform=" translate(-187.98, -86.65)" d="M 222.373 14.063 C 266.168 9.9747 315.731 13.008 348.587 31.1643 C 379.8 48.4097 386.495 79.3707 357.135 107.161 C 328.775 133.999 280.041 147.689 240.213 156.91 C 198.357 166.619 154.895 172.914 113.17 172.715 C 76.8576 172.561 34.2382 168.754 11.5995 148.133 C -4.04264 133.855 -2.62351 113.335 8.61673 94.5041 C 37.6916 45.72 113.697 10.765 178.057 2.39047 C 222.043 -3.30381 263.254 4.73901 294.92 23.1551 C 297.915 24.8947 298.617 27.6303 295.672 25.9094 C 233.89 -10.0192 133.131 2.18316 64.068 44.4358 C 37.6157 60.6218 14.483 83.104 6.07781 107.376 C -2.45454 132.006 13.9336 152.276 40.2772 160.752 C 78.8071 173.152 128.234 170.876 172.379 165.106 C 218.433 159.074 275.846 147.918 318.565 129.008 C 337.795 120.49 354.151 107.273 365.322 92.4746 C 378.774 74.6581 375.259 55.517 360.867 42.3552 C 332.748 16.659 269.095 12.9519 223.102 16.7341 C 222.399 16.7965 221.654 16.8703 220.951 16.9327 C 216.825 17.3144 218.289 14.4333 222.373 14.063 Z" stroke-linecap="round"></path> </g> </svg> 